<svg id="Layer_1" data-name="Layer 1" xmlns="http://www.w3.org/2000/svg" viewBox="0 0 378.67 206.67"><defs><style>.cls-1{fill:#656668;}.cls-2{fill:#fee00d;}.cls-3{fill:#fbfbfb;}.cls-4{fill:#ccc;}</style></defs><title>Logo</title><path class="cls-1" d="M39,166.52l-3.31,4.13a13.12,13.12,0,0,0-9.36-4.27,11.83,11.83,0,1,0,0,23.67,13.89,13.89,0,0,0,9.36-4l3.36,3.74a19.08,19.08,0,0,1-13,5.52c-9.84,0-17.47-7.44-17.47-17.09s7.73-16.9,17.67-16.9A18.55,18.55,0,0,1,39,166.52Z"/><path class="cls-1" d="M68.28,195.08V181.16H50.47v13.92H44.81v-33.6h5.67v14.59H68.28V161.48h5.66v33.6H68.28Z"/><path class="cls-1" d="M88.44,166.56v9.07h16.42v5.09H88.44V190h18.91v5.09H82.78v-33.6h24v5.09H88.44Z"/><path class="cls-1" d="M137.07,164.69l-2.35,5a20.08,20.08,0,0,0-9.84-3.12c-3.31,0-5.47,1.25-5.47,3.5,0,7.34,18.15,3.41,18.1,15.5,0,6-5.28,9.7-12.67,9.7a20.67,20.67,0,0,1-13.73-5.33l2.45-4.9a17.72,17.72,0,0,0,11.38,4.9c3.94,0,6.29-1.49,6.29-4.08,0-7.49-18.15-3.31-18.15-15.26,0-5.76,4.95-9.36,12.24-9.36A21.89,21.89,0,0,1,137.07,164.69Z"/><path class="cls-1" d="M166.92,164.69l-2.35,5a20.08,20.08,0,0,0-9.84-3.12c-3.31,0-5.47,1.25-5.47,3.5,0,7.34,18.15,3.41,18.1,15.5,0,6-5.28,9.7-12.67,9.7a20.67,20.67,0,0,1-13.73-5.33l2.45-4.9a17.72,17.72,0,0,0,11.38,4.9c3.94,0,6.29-1.49,6.29-4.08,0-7.49-18.15-3.31-18.15-15.26,0-5.76,4.95-9.36,12.24-9.36A21.89,21.89,0,0,1,166.92,164.69Z"/><path class="cls-1" d="M204.26,195.08l0-25.11-10.61,21.6h-3.7L179.3,170v25.11H174v-33.6h6.72l11.09,22.32,11-22.32h6.67v33.6h-5.23Z"/><path class="cls-1" d="M223.13,187.49l-3.22,7.58H214l14.83-33.6h5.81l14.69,33.6h-6l-3.22-7.58H223.13Zm8.45-20-6.34,14.93h12.67Z"/><path class="cls-1" d="M276.31,164.69l-2.35,5a20.08,20.08,0,0,0-9.84-3.12c-3.31,0-5.47,1.25-5.47,3.5,0,7.34,18.15,3.41,18.1,15.5,0,6-5.28,9.7-12.67,9.7a20.67,20.67,0,0,1-13.73-5.33l2.45-4.9a17.72,17.72,0,0,0,11.38,4.9c3.94,0,6.29-1.49,6.29-4.08,0-7.49-18.15-3.31-18.15-15.26,0-5.76,4.95-9.36,12.24-9.36A21.89,21.89,0,0,1,276.31,164.69Z"/><path class="cls-1" d="M295.65,166.56v28.51H290V166.56H279.38v-5.09h26.93v5.09H295.65Z"/><path class="cls-1" d="M316.82,166.56v9.07h16.42v5.09H316.82V190h18.91v5.09H311.16v-33.6h24v5.09H316.82Z"/><path class="cls-1" d="M357.81,184.9c-0.48,0-1,0-1.54,0h-8v10.13h-5.67v-33.6h13.63c8.59,0,13.54,4.18,13.54,11.47,0,5.38-2.5,9.17-7,10.9l7.54,11.23H364Zm-1.54-5c5.18,0,8.16-2.21,8.16-6.77s-3-6.53-8.16-6.53h-8v13.3h8Z"/><polygon class="cls-2" points="126.03 38.86 148.3 128.33 232.89 128.33 255.31 38.87 216.7 84.95 190.6 9.95 164.68 84.95 126.03 38.86"/><polygon class="cls-3" points="233.96 123.15 147.24 123.15 146.47 120.06 234.74 120.06 233.96 123.15"/><circle class="cls-4" cx="190.6" cy="9.96" r="5.27"/><circle class="cls-4" cx="126.03" cy="39.3" r="5.27"/><circle class="cls-4" cx="255.31" cy="38.91" r="5.27"/><polyline class="cls-4" points="216.7 84.98 240.43 56.67 214.89 79.97"/><polyline class="cls-4" points="164.62 84.98 140.89 56.67 166.43 79.97"/></svg>