<svg id="Layer_1" data-name="Layer 1" xmlns="http://www.w3.org/2000/svg" viewBox="0 0 532.67 132.67"><defs><style>.cls-1{fill:#fee00d;}.cls-2{fill:#fbfbfb;}.cls-3{fill:#656668;}.cls-4{fill:#ccc;}</style></defs><title>Logo</title><polygon class="cls-1" points="9.37 36.86 31.64 126.33 116.23 126.33 138.65 36.87 100.04 82.95 73.94 7.95 48.02 82.95 9.37 36.86"/><polygon class="cls-2" points="117.3 121.15 30.58 121.15 29.81 118.06 118.08 118.06 117.3 121.15"/><path class="cls-3" d="M194.39,69.52l-3.31,4.13a13.12,13.12,0,0,0-9.36-4.27,11.83,11.83,0,1,0,0,23.67,13.89,13.89,0,0,0,9.36-4l3.36,3.74a19.08,19.08,0,0,1-13,5.52c-9.84,0-17.47-7.44-17.47-17.09s7.73-16.9,17.67-16.9A18.55,18.55,0,0,1,194.39,69.52Z"/><path class="cls-3" d="M223.66,98.08V84.16H205.85V98.08h-5.67V64.48h5.67V79.07h17.81V64.48h5.66v33.6h-5.66Z"/><path class="cls-3" d="M243.82,69.56v9.07h16.42v5.09H243.82V93h18.91v5.09H238.16V64.48h24v5.09H243.82Z"/><path class="cls-3" d="M292.45,67.69l-2.35,5a20.08,20.08,0,0,0-9.84-3.12c-3.31,0-5.47,1.25-5.47,3.5,0,7.34,18.15,3.41,18.1,15.5,0,6-5.28,9.7-12.67,9.7a20.67,20.67,0,0,1-13.73-5.33l2.45-4.9a17.72,17.72,0,0,0,11.38,4.9c3.94,0,6.29-1.49,6.29-4.08,0-7.49-18.15-3.31-18.15-15.26,0-5.76,4.95-9.36,12.24-9.36A21.89,21.89,0,0,1,292.45,67.69Z"/><path class="cls-3" d="M322.3,67.69l-2.35,5a20.08,20.08,0,0,0-9.84-3.12c-3.31,0-5.47,1.25-5.47,3.5,0,7.34,18.15,3.41,18.1,15.5,0,6-5.28,9.7-12.67,9.7a20.67,20.67,0,0,1-13.73-5.33l2.45-4.9a17.72,17.72,0,0,0,11.38,4.9c3.94,0,6.29-1.49,6.29-4.08,0-7.49-18.15-3.31-18.15-15.26,0-5.76,4.95-9.36,12.24-9.36A21.89,21.89,0,0,1,322.3,67.69Z"/><path class="cls-3" d="M359.65,98.08l0-25.11L349,94.57h-3.7L334.68,73V98.08h-5.33V64.48h6.72L347.16,86.8l11-22.32h6.67v33.6h-5.23Z"/><path class="cls-3" d="M378.51,90.49l-3.22,7.58h-5.9l14.83-33.6H390l14.69,33.6h-6l-3.22-7.58H378.51Zm8.45-20-6.34,14.93h12.67Z"/><path class="cls-3" d="M431.69,67.69l-2.35,5a20.08,20.08,0,0,0-9.84-3.12c-3.31,0-5.47,1.25-5.47,3.5,0,7.34,18.15,3.41,18.1,15.5,0,6-5.28,9.7-12.67,9.7a20.67,20.67,0,0,1-13.73-5.33l2.45-4.9a17.72,17.72,0,0,0,11.38,4.9c3.94,0,6.29-1.49,6.29-4.08,0-7.49-18.15-3.31-18.15-15.26,0-5.76,4.95-9.36,12.24-9.36A21.89,21.89,0,0,1,431.69,67.69Z"/><path class="cls-3" d="M451,69.56V98.08h-5.66V69.56H434.76V64.48h26.93v5.09H451Z"/><path class="cls-3" d="M472.2,69.56v9.07h16.42v5.09H472.2V93h18.91v5.09H466.54V64.48h24v5.09H472.2Z"/><path class="cls-3" d="M513.19,87.9c-0.48,0-1,0-1.54,0h-8V98.08H498V64.48h13.63c8.59,0,13.54,4.18,13.54,11.47,0,5.38-2.5,9.17-7,10.9l7.54,11.23h-6.43Zm-1.54-5c5.18,0,8.16-2.21,8.16-6.77s-3-6.53-8.16-6.53h-8v13.3h8Z"/><circle class="cls-4" cx="73.94" cy="7.96" r="5.27"/><circle class="cls-4" cx="9.37" cy="37.3" r="5.27"/><circle class="cls-4" cx="138.65" cy="36.91" r="5.27"/><polyline class="cls-4" points="100.04 82.98 123.77 54.67 98.23 77.97"/><polyline class="cls-4" points="47.96 82.98 24.23 54.67 49.77 77.97"/></svg>