<?xml version="1.0" encoding="utf-8"?>
<!-- Generator: Adobe Illustrator 19.2.1, SVG Export Plug-In . SVG Version: 6.00 Build 0)  -->
<svg version="1.1" id="Layer_1" xmlns="http://www.w3.org/2000/svg" xmlns:xlink="http://www.w3.org/1999/xlink" x="0px" y="0px"
	 viewBox="0 0 100 100" style="enable-background:new 0 0 100 100;" xml:space="preserve">
<style type="text/css">
	.st0{fill:#656668;}
</style>
<g>
	<path class="st0" d="M14.9,14.9C24.6,5.1,36.3,0.3,50,0.3s25.4,4.9,35.1,14.6S99.7,36.3,99.7,50s-4.9,25.4-14.6,35.1
		S63.7,99.7,50,99.7s-25.4-4.9-35.1-14.6S0.3,63.7,0.3,50S5.1,24.6,14.9,14.9z M82.3,17.7C73.4,8.8,62.6,4.3,50,4.3
		S26.6,8.8,17.7,17.7S4.3,37.4,4.3,50c0,11,3.6,20.7,10.8,29.2c6.4-2.9,13.5-5.4,21.5-7.7c0.5-0.3,0.7-1.1,0.7-2.4
		c0-2.6-0.3-4.5-1-5.7c-0.8-1.8-1.5-4.2-2.2-7.4c-1.4-1.9-2.6-4.5-3.3-7.9c-0.5-2.6-0.4-4.8,0.2-6.7v-0.5c0.5-1.6,0.2-4.6-0.7-9.1
		c-0.8-4.1,0.4-8.3,3.6-12.4c3-4,7.7-6.2,13.9-6.7h4.3C58.4,13,63,15.3,66,19.4c3.2,4.1,4.4,8.3,3.6,12.4c-1,4.5-1.2,7.5-0.7,9.1
		c0.2,0.2,0.2,0.3,0.2,0.5c0.5,1.6,0.5,3.8,0,6.7c-0.6,3.2-1.8,5.7-3.3,7.7c-0.6,3.5-1.4,6.1-2.2,7.7c-1,2.2-1.4,4.1-1.4,5.5
		c0,1.6,0.2,2.5,0.5,2.6c8,2.4,15.4,4.9,22.2,7.7C92.1,70.7,95.7,61,95.7,50C95.7,37.4,91.2,26.6,82.3,17.7z"/>
</g>
<g>
</g>
<g>
</g>
<g>
</g>
<g>
</g>
<g>
</g>
<g>
</g>
<g>
</g>
<g>
</g>
<g>
</g>
<g>
</g>
<g>
</g>
<g>
</g>
<g>
</g>
<g>
</g>
<g>
</g>
</svg>
